<?xml version="1.0" encoding="UTF-8" standalone="no"?>
<!DOCTYPE svg PUBLIC "-//W3C//DTD SVG 1.1//EN" "http://www.w3.org/Graphics/SVG/1.1/DTD/svg11.dtd">
<svg width="100%" height="100%" viewBox="0 0 1080 1080" version="1.1" xmlns="http://www.w3.org/2000/svg" xmlns:xlink="http://www.w3.org/1999/xlink" xml:space="preserve" xmlns:serif="http://www.serif.com/" style="fill-rule:evenodd;clip-rule:evenodd;stroke-linecap:round;stroke-linejoin:round;stroke-miterlimit:1.5;">
    <g transform="matrix(0.552718,0,0,1.03735,-30.7699,-62.0832)">
        <path d="M741.951,444.937L741.951,746.282C741.951,768.122 708.673,785.854 667.683,785.854L519.146,785.854C478.157,785.854 444.878,768.122 444.878,746.282L444.878,444.937C444.878,423.097 478.157,405.366 519.146,405.366L667.683,405.366C708.673,405.366 741.951,423.097 741.951,444.937Z" style="fill:none;stroke:rgb(254,254,112);stroke-width:61.37px;"/>
    </g>
    <g transform="matrix(0.488679,0,0,1.03735,554.985,-57.2989)">
        <path d="M741.951,440.352L741.951,750.867C741.951,770.177 708.673,785.854 667.683,785.854L519.146,785.854C478.157,785.854 444.878,770.177 444.878,750.867L444.878,440.352C444.878,421.043 478.157,405.366 519.146,405.366L667.683,405.366C708.673,405.366 741.951,421.043 741.951,440.352Z" style="fill:none;stroke:rgb(254,254,112);stroke-width:62.91px;"/>
    </g>
    <g transform="matrix(1.34454,0,0,1.63462,-219.721,-409.447)">
        <path d="M741.951,466.455L741.951,724.765C741.951,758.481 708.673,785.854 667.683,785.854L519.146,785.854C478.157,785.854 444.878,758.481 444.878,724.765L444.878,466.455C444.878,432.739 478.157,405.366 519.146,405.366L667.683,405.366C708.673,405.366 741.951,432.739 741.951,466.455Z" style="fill:none;stroke:rgb(254,254,112);stroke-width:47.72px;"/>
    </g>
</svg>
