<svg width="1080" height="1080" viewBox="0 0 1080 1080" xmlns="http://www.w3.org/2000/svg" xmlns:xlink="http://www.w3.org/1999/xlink">
  <!-- Dark background with rounded corners -->
  <rect width="1080" height="1080" rx="216" fill="#131313"/>
  <!-- Logo mark in white -->
  <g fill="white" fill-rule="evenodd" clip-rule="evenodd">
    <g transform="matrix(1.15018,0,0,1.15018,-3806.1,-2447.29)">
      <g transform="matrix(0.560893,0.341053,-0.341053,0.560893,3350.99,1949.78)">
        <path d="M1292.4,345.053C1303.7,218.747 1288.14,133.392 1207.23,115.02C1121.67,95.593 1052.39,155.025 1008.59,224.563C983.334,264.668 944.446,392.286 901.502,504.125L900.896,503.998C883.991,544.956 862.448,594.545 837.415,646.568C802.429,719.278 753.475,753.613 717.867,769.696C688.093,779.283 651.144,779.235 603.317,763.312C574.263,753.639 473.718,663.479 508.847,429.54C485.071,412.731 469.535,385.026 469.535,353.721C469.535,302.508 511.113,260.93 562.326,260.93C613.538,260.93 655.116,302.508 655.116,353.721C655.116,404.001 615.038,444.995 565.112,446.471C545.651,595.684 591.27,658.88 614.973,666.487C657.763,680.22 705.475,641.312 730.328,605.068C735.05,598.182 739.204,591.07 742.949,583.729C753.678,564.073 769.075,532.078 790.499,480.005C787.314,479.324 784.19,478.66 781.136,478.017L781.167,477.375L790.741,479.417C793.865,471.818 797.117,463.792 800.502,455.317C836.145,366.05 863.954,268.98 887.673,212.257C909.685,159.615 936.732,118.092 961.913,86.771C1033.35,2.445 1138.06,-61.697 1260.33,-40.943C1480.86,-3.512 1530.24,219.283 1528.06,405.498C1586.29,460.659 1617.14,542.724 1603.39,627.8C1581.29,764.456 1452.41,857.464 1315.75,835.369C1179.1,813.274 1086.09,684.388 1108.18,547.732C1124.52,446.658 1199.28,369.461 1292.4,345.053Z"/>
      </g>
      <g transform="matrix(0.806739,0.688687,-0.649267,0.760561,2520.97,420.485)">
        <path d="M2139.84,891.436C2149.21,933.132 2157.58,965.373 2183.44,1007.41C2205.28,1042.93 2246.33,1071.31 2264.47,1070.85C2274.43,1070.61 2284.85,1068.93 2295.05,1062.41C2330.29,1086.84 2372.39,1101.05 2417.59,1101.05C2425.05,1101.05 2432.43,1100.66 2439.72,1099.9C2377.23,1197.91 2297.54,1203.12 2271.53,1198.88C2214.44,1189.58 2186.45,1162.2 2157.49,1122.42C2135.37,1092.05 2120.08,1051.48 2103.74,1006.06C2110.79,993.14 2117.11,978.006 2122.06,960.298C2128.82,936.091 2134.76,912.738 2139.84,891.436Z"/>
      </g>
      <g transform="matrix(0.806739,0.688687,-0.649267,0.760561,2518.72,426.605)">
        <path d="M2050.2,817.403C2046.1,785.143 2041.4,757.907 2038.16,748.31C2031.37,728.222 2026.24,681.306 1973.88,693.874C1962.91,696.506 1957.32,707.895 1952.57,711.72C1938.41,698.734 1923.23,694.727 1908.6,692.977C1923.42,662.771 1945.37,641.173 1961.4,632.886C2021.36,601.89 2055.28,626.429 2078.05,657.734C2077.95,658.129 2077.86,658.525 2077.77,658.922C2069.28,696.443 2062.13,758.218 2050.2,817.403Z"/>
      </g>
    </g>
  </g>
</svg>
