<?xml version="1.0" encoding="UTF-8" standalone="no"?>
<!DOCTYPE svg PUBLIC "-//W3C//DTD SVG 1.1//EN" "http://www.w3.org/Graphics/SVG/1.1/DTD/svg11.dtd">
<svg width="100%" height="100%" viewBox="0 0 1080 1080" version="1.1" xmlns="http://www.w3.org/2000/svg" xmlns:xlink="http://www.w3.org/1999/xlink" xml:space="preserve" xmlns:serif="http://www.serif.com/" style="fill-rule:evenodd;clip-rule:evenodd;stroke-linejoin:round;stroke-miterlimit:2;">
    <g transform="matrix(1.15018,0,0,1.15018,-3806.1,-2447.29)">
        <g transform="matrix(0.560893,0.341053,-0.341053,0.560893,3350.99,1949.78)">
            <path d="M1292.4,345.053C1303.7,218.747 1288.14,133.392 1207.23,115.02C1121.67,95.593 1052.39,155.025 1008.59,224.563C983.334,264.668 944.446,392.286 901.502,504.125L900.896,503.998C883.991,544.956 862.448,594.545 837.415,646.568C802.429,719.278 753.475,753.613 717.867,769.696C688.093,779.283 651.144,779.235 603.317,763.312C574.263,753.639 473.718,663.479 508.847,429.54C485.071,412.731 469.535,385.026 469.535,353.721C469.535,302.508 511.113,260.93 562.326,260.93C613.538,260.93 655.116,302.508 655.116,353.721C655.116,404.001 615.038,444.995 565.112,446.471C545.651,595.684 591.27,658.88 614.973,666.487C657.763,680.22 705.475,641.312 730.328,605.068C735.05,598.182 739.204,591.07 742.949,583.729C753.678,564.073 769.075,532.078 790.499,480.005C787.314,479.324 784.19,478.66 781.136,478.017L781.167,477.375L790.741,479.417C793.865,471.818 797.117,463.792 800.502,455.317C836.145,366.05 863.954,268.98 887.673,212.257C909.685,159.615 936.732,118.092 961.913,86.771C1033.35,2.445 1138.06,-61.697 1260.33,-40.943C1480.86,-3.512 1530.24,219.283 1528.06,405.498C1586.29,460.659 1617.14,542.724 1603.39,627.8C1581.29,764.456 1452.41,857.464 1315.75,835.369C1179.1,813.274 1086.09,684.388 1108.18,547.732C1124.52,446.658 1199.28,369.461 1292.4,345.053Z"/>
        </g>
        <g transform="matrix(0.806739,0.688687,-0.649267,0.760561,2520.97,420.485)">
            <path d="M2139.84,891.436C2149.21,933.132 2157.58,965.373 2183.44,1007.41C2205.28,1042.93 2246.33,1071.31 2264.47,1070.85C2274.43,1070.61 2284.85,1068.93 2295.05,1062.41C2330.29,1086.84 2372.39,1101.05 2417.59,1101.05C2425.05,1101.05 2432.43,1100.66 2439.72,1099.9C2377.23,1197.91 2297.54,1203.12 2271.53,1198.88C2214.44,1189.58 2186.45,1162.2 2157.49,1122.42C2135.37,1092.05 2120.08,1051.48 2103.74,1006.06C2110.79,993.14 2117.11,978.006 2122.06,960.298C2128.82,936.091 2134.76,912.738 2139.84,891.436Z"/>
        </g>
        <g transform="matrix(0.806739,0.688687,-0.649267,0.760561,2520.97,420.485)">
            <path d="M2357.46,867.27L2511.31,875.416C2511.42,875.423 2511.53,875.48 2511.6,875.574C2511.68,875.668 2511.71,875.791 2511.69,875.911C2469.68,1190.96 2310.42,1205.66 2271.47,1199.31C2214.25,1189.99 2186.2,1162.56 2157.16,1122.69C2131.8,1087.86 2115.4,1039.64 2096.12,986.055C2091.79,995.282 2086.98,1003.73 2082.18,1011.62C2063.17,1042.89 2034.22,1066.26 1975.15,1056.08C1969.42,1055.09 1958.87,1049.96 1946.93,1038.87C1919.21,1013.13 1883.88,955.221 1884.09,842.659C1884.1,842.54 1884.14,842.427 1884.22,842.345C1884.3,842.263 1884.41,842.22 1884.53,842.226L1920.42,844.127C1920.64,844.138 1920.81,844.327 1920.81,844.557C1921.29,908.112 1934.35,947.36 1948.12,969.13C1957.22,983.526 1966.61,990.255 1972.84,991.255C1983.73,993.005 1994.28,989.254 2003.75,982.482C2018.04,972.272 2029.88,955.202 2036.81,939.612C2048.38,913.6 2049.75,885.215 2055,851.639C2055.03,851.421 2055.22,851.265 2055.43,851.276L2131.8,855.32C2131.98,855.33 2132.14,855.464 2132.18,855.65C2146.38,916.498 2151.07,953.989 2183.78,1007.18C2196.85,1028.43 2216.82,1047.12 2234.61,1058.57C2246.42,1066.18 2257.26,1070.6 2264.46,1070.42C2274.88,1070.16 2285.8,1068.34 2296.45,1060.97C2307.12,1053.59 2317.51,1040.66 2326.87,1018.21C2339.39,988.167 2350.06,941.135 2357.04,867.66C2357.06,867.43 2357.25,867.258 2357.46,867.27ZM2357.81,868.159C2350.82,941.528 2340.14,988.522 2327.62,1018.56C2318.17,1041.21 2307.66,1054.25 2296.89,1061.7C2286.1,1069.16 2275.04,1071.03 2264.48,1071.29C2257.17,1071.47 2246.17,1067.03 2234.19,1059.32C2216.3,1047.8 2196.23,1029.02 2183.09,1007.65C2150.38,954.459 2145.62,916.945 2131.46,856.172L2055.75,852.163C2050.54,885.662 2049.11,914.001 2037.55,939.983C2030.56,955.702 2018.61,972.908 2004.21,983.203C1994.56,990.101 1983.81,993.897 1972.71,992.115C1966.36,991.095 1956.73,984.302 1947.44,969.614C1933.64,947.806 1920.53,908.536 1920,844.975L1884.91,843.117C1884.79,954.99 1919.88,1012.6 1947.47,1038.22C1959.25,1049.15 1969.63,1054.25 1975.28,1055.22C2033.89,1065.32 2062.63,1042.18 2081.49,1011.15C2086.43,1003.03 2091.38,994.324 2095.8,984.779C2095.88,984.623 2096.03,984.528 2096.19,984.536C2096.35,984.544 2096.5,984.654 2096.55,984.815C2115.94,1038.68 2132.35,1087.19 2157.81,1122.16C2186.71,1161.85 2214.63,1189.17 2271.6,1198.45C2310.41,1204.78 2468.83,1189.94 2510.82,876.261L2357.81,868.159Z" style="fill:none;"/>
        </g>
        <g transform="matrix(0.806739,0.688687,-0.649267,0.760561,2518.72,426.605)">
            <path d="M2050.2,817.403C2046.1,785.143 2041.4,757.907 2038.16,748.31C2031.37,728.222 2026.24,681.306 1973.88,693.874C1962.91,696.506 1957.32,707.895 1952.57,711.72C1938.41,698.734 1923.23,694.727 1908.6,692.977C1923.42,662.771 1945.37,641.173 1961.4,632.886C2021.36,601.89 2055.28,626.429 2078.05,657.734C2077.95,658.129 2077.86,658.525 2077.77,658.922C2069.28,696.443 2062.13,758.218 2050.2,817.403Z"/>
        </g>
    </g>
</svg>
