<?xml version="1.0" encoding="UTF-8" standalone="no"?>
<!DOCTYPE svg PUBLIC "-//W3C//DTD SVG 1.1//EN" "http://www.w3.org/Graphics/SVG/1.1/DTD/svg11.dtd">
<svg width="100%" height="100%" viewBox="0 0 1080 1080" version="1.1" xmlns="http://www.w3.org/2000/svg" xmlns:xlink="http://www.w3.org/1999/xlink" xml:space="preserve" xmlns:serif="http://www.serif.com/" style="fill-rule:evenodd;clip-rule:evenodd;stroke-linejoin:round;stroke-miterlimit:2;">
    <g transform="matrix(0.806739,0.688687,-0.649267,0.760561,-706.977,-1634.61)">
        <path d="M2462.51,1057.98C2398.3,1196.44 2300.84,1203.66 2271.53,1198.88C2214.44,1189.58 2186.45,1162.2 2157.49,1122.42C2132,1087.43 2115.57,1038.88 2096.17,984.971C2091.74,994.531 2086.78,1003.25 2081.84,1011.38C2062.9,1042.54 2034.05,1065.79 1975.22,1055.65C1959.94,1053.02 1910.24,1020.6 1891.63,924.245C1900.87,926.132 1910.57,926.364 1920.39,924.679C1923.36,924.17 1926.26,923.499 1929.1,922.677C1940.9,970.541 1961.77,989.918 1972.77,991.685C2000.27,996.101 2025.58,965.888 2037.18,939.797C2051.05,908.621 2050.3,874.042 2059.07,831.215C2052.85,803.099 2049.63,782.223 2038.16,748.31C2031.37,728.222 2021.02,676.609 1970.98,697.241C1959.02,702.171 1942.11,718.299 1931.2,754.347C1919.52,750.575 1906.88,749.5 1894.03,751.704C1893.28,751.831 1892.54,751.969 1891.81,752.117C1905.63,676.054 1936.47,645.776 1961.4,632.886C2025.29,599.859 2059.61,629.882 2082.38,663.96C2083.77,666.044 2085.33,668.039 2086.75,670.161C2096.13,637.586 2107.29,607.054 2121.38,580.72C2156.27,515.515 2215.34,458.854 2295.03,459.516C2396.41,460.358 2452.54,534.116 2482.51,620.481C2463.53,614.569 2443.44,611.397 2422.66,611.397C2393.28,611.397 2365.29,617.737 2339.84,629.196C2320.22,580.876 2292.72,566.213 2278,566.149C2223.7,565.91 2187.35,608.297 2167.46,657.948C2146.25,710.91 2139.66,776.357 2127.43,837.678C2145.35,909.65 2147.58,949.107 2183.44,1007.41C2205.28,1042.93 2246.33,1071.31 2264.47,1070.85C2282.78,1070.4 2302.62,1065.13 2319.87,1033.81C2350.34,1051.74 2385.38,1061.95 2422.66,1061.95C2436.28,1061.95 2449.6,1060.58 2462.51,1057.98Z" style="fill:white;stroke:white;stroke-width:0.97px;"/>
    </g>
    <g transform="matrix(0.560893,0.341053,-0.341053,0.560893,92.6678,-73.829)">
        <circle cx="562.326" cy="353.721" r="92.791" style="fill:white;"/>
    </g>
    <g transform="matrix(1.34955,1.15206,-1.15206,1.34955,352.878,-455.018)">
        <circle cx="562.326" cy="353.721" r="92.791" style="fill:white;"/>
    </g>
</svg>
