<?xml version="1.0" encoding="UTF-8" standalone="no"?>
<!DOCTYPE svg PUBLIC "-//W3C//DTD SVG 1.1//EN" "http://www.w3.org/Graphics/SVG/1.1/DTD/svg11.dtd">
<svg width="100%" height="100%" viewBox="0 0 1080 1080" version="1.1" xmlns="http://www.w3.org/2000/svg" xmlns:xlink="http://www.w3.org/1999/xlink" xml:space="preserve" xmlns:serif="http://www.serif.com/" style="fill-rule:evenodd;clip-rule:evenodd;stroke-linecap:square;stroke-linejoin:round;stroke-miterlimit:1.5;">
    <g transform="matrix(1.15018,0,0,1.15018,-145.95,-63.7487)">
        <path d="M1063.87,241.19L1063.87,810.317C1063.87,911.856 981.436,994.293 879.897,994.293L310.77,994.293C209.231,994.293 126.794,911.856 126.794,810.317L126.794,241.19C126.794,139.651 209.231,57.214 310.77,57.214L879.897,57.214C981.436,57.214 1063.87,139.651 1063.87,241.19Z" style="fill:rgb(185,204,22);"/>
    </g>
    <g transform="matrix(1.15018,0,0,1.15018,-3806.1,-2447.29)">
        <g transform="matrix(0.560893,0.341053,-0.341053,0.560893,3350.99,1949.78)">
            <circle cx="562.326" cy="353.721" r="92.791" style="fill:rgb(21,160,198);"/>
            <path d="M562.326,225.569C633.055,225.569 690.478,282.992 690.478,353.721C690.478,424.45 633.055,481.873 562.326,481.873C491.597,481.873 434.174,424.45 434.174,353.721C434.174,282.992 491.597,225.569 562.326,225.569ZM562.326,260.93C511.113,260.93 469.535,302.508 469.535,353.721C469.535,404.934 511.113,446.512 562.326,446.512C613.538,446.512 655.116,404.934 655.116,353.721C655.116,302.508 613.538,260.93 562.326,260.93Z" style="fill:rgb(185,203,22);"/>
        </g>
        <g transform="matrix(0.806739,0.688687,-0.649267,0.760561,2520.97,420.485)">
            <path d="M2357.44,867.704L2511.29,875.851C2469.33,1190.44 2310.43,1205.22 2271.53,1198.88C2214.44,1189.58 2186.45,1162.2 2157.49,1122.42C2132,1087.43 2115.57,1038.88 2096.17,984.971C2091.74,994.531 2086.78,1003.25 2081.84,1011.38C2062.9,1042.54 2034.05,1065.79 1975.22,1055.65C1956.25,1052.38 1884.2,1003.18 1884.5,842.66L1920.4,844.561C1921.2,950.692 1957.05,989.16 1972.77,991.685C2000.27,996.101 2025.58,965.888 2037.18,939.797C2048.76,913.751 2050.15,885.331 2055.41,851.71L2131.78,855.754C2145.99,916.657 2150.7,954.178 2183.44,1007.41C2205.28,1042.93 2246.33,1071.31 2264.47,1070.85C2299.43,1069.98 2339.99,1051.55 2357.44,867.704Z" style="fill:rgb(21,160,198);"/>
        </g>
        <g transform="matrix(1.34955,1.15206,-1.15206,1.34955,3559.61,1616.65)">
            <circle cx="562.326" cy="353.721" r="92.791" style="fill:rgb(21,160,198);"/>
            <path d="M562.326,219.593C636.353,219.593 696.454,279.694 696.454,353.721C696.454,427.748 636.353,487.849 562.326,487.849C488.298,487.849 428.198,427.748 428.198,353.721C428.198,279.694 488.298,219.593 562.326,219.593ZM562.326,260.93C511.113,260.93 469.535,302.508 469.535,353.721C469.535,404.934 511.113,446.512 562.326,446.512C613.538,446.512 655.116,404.934 655.116,353.721C655.116,302.508 613.538,260.93 562.326,260.93Z" style="fill:rgb(185,203,22);"/>
        </g>
        <g transform="matrix(0.806739,0.688687,-0.649267,0.760561,2518.72,426.605)">
            <path d="M2129.65,850.333C2105.04,849.121 2076.18,847.161 2053.54,846.026C2048.9,802.167 2042.33,760.653 2038.16,748.31C2031.37,728.222 2026.24,681.306 1973.88,693.874C1962.91,696.506 1957.32,707.895 1952.57,711.72C1938.41,698.734 1923.23,694.727 1908.6,692.977C1923.42,662.771 1945.37,641.173 1961.4,632.886C2025.29,599.859 2059.61,629.882 2082.38,663.96C2083.77,666.044 2085.33,668.039 2086.75,670.161C2096.13,637.586 2107.29,607.054 2121.38,580.72C2156.27,515.515 2215.34,458.854 2295.03,459.516C2501.43,461.231 2516.09,769.87 2508.48,867.122C2508.37,868.64 2433.49,860.654 2354.35,857.285C2356.83,692.965 2355.98,571.365 2278,566.149C2223.81,562.524 2187.35,608.297 2167.46,657.948C2155.99,686.584 2144.84,773.358 2129.65,850.333Z" style="fill:rgb(21,160,198);"/>
        </g>
        <g transform="matrix(1,0,0,1,511.593,-5789.65)">
            <path d="M3031.07,8323.09C3031.07,8323.09 3042.86,8325.7 3128.32,8261.46C3178.8,8223.52 3227.54,8178.53 3260.21,8154.79C3343.05,8094.59 3418.94,8092.41 3418.94,8092.41" style="fill:none;stroke:rgb(185,203,22);stroke-width:15.93px;"/>
        </g>
        <g transform="matrix(1,0,0,1,498.058,-5654.13)">
            <path d="M2958.7,8280.12C2958.7,8280.12 3024.22,8312.89 3106.74,8259.29C3187.62,8206.77 3250.54,8155.37 3250.54,8155.37" style="fill:none;stroke:rgb(185,203,22);stroke-width:16.99px;"/>
        </g>
    </g>
</svg>
