<?xml version="1.0" encoding="UTF-8" standalone="no"?>
<!DOCTYPE svg PUBLIC "-//W3C//DTD SVG 1.1//EN" "http://www.w3.org/Graphics/SVG/1.1/DTD/svg11.dtd">
<svg width="100%" height="100%" viewBox="0 0 1080 1080" version="1.1" xmlns="http://www.w3.org/2000/svg" xmlns:xlink="http://www.w3.org/1999/xlink" xml:space="preserve" xmlns:serif="http://www.serif.com/" style="fill-rule:evenodd;clip-rule:evenodd;stroke-linecap:round;stroke-linejoin:round;stroke-miterlimit:1.5;">
    <g transform="matrix(1,0,0,1,-1065.04,32.0623)">
        <g transform="matrix(1,0,0,1,1008.04,-20.7647)">
            <path d="M1063.87,241.19L1063.87,810.317C1063.87,911.856 981.436,994.293 879.897,994.293L310.77,994.293C209.231,994.293 126.794,911.856 126.794,810.317L126.794,241.19C126.794,139.651 209.231,57.214 310.77,57.214L879.897,57.214C981.436,57.214 1063.87,139.651 1063.87,241.19Z" style="fill:rgb(48,0,76);stroke:rgb(4,4,4);stroke-width:1px;"/>
        </g>
        <g transform="matrix(1,0,0,1,1008.04,-20.7647)">
            <path d="M1063.87,241.19L1063.87,810.317C1063.87,911.856 981.436,994.293 879.897,994.293L310.77,994.293C209.231,994.293 126.794,911.856 126.794,810.317L126.794,241.19C126.794,139.651 209.231,57.214 310.77,57.214L879.897,57.214C981.436,57.214 1063.87,139.651 1063.87,241.19Z" style="fill:rgb(48,0,76);stroke:rgb(4,4,4);stroke-width:1px;"/>
        </g>
        <g transform="matrix(0.760561,0.649267,-0.649267,0.760561,480.203,-1560.25)">
            <path d="M1959.3,1029.06C2155.67,1060.59 2041.03,516.256 2287.35,517.34C2400.56,517.838 2407.91,743.364 2394.83,865.575C2376.38,1038.06 2370.61,1149.3 2262.95,1143.92C2187.05,1140.12 2126.81,958.604 2095.5,829.829C2080.71,768.976 2062.44,630.936 1958.8,661.287C1832.07,698.4 1844.15,1010.57 1959.3,1029.06Z" style="fill:rgb(48,0,76);fill-opacity:0;"/>
        </g>
        <g transform="matrix(0.806739,0.688687,-0.649267,0.760561,344.427,-1685.68)">
            <path d="M2086.75,670.161C2096.13,637.586 2107.29,607.054 2121.38,580.72C2156.27,515.515 2215.34,458.854 2295.03,459.516C2512.17,461.32 2521.72,797.614 2511.29,875.851C2469.33,1190.44 2310.43,1205.22 2271.53,1198.88C2214.44,1189.58 2186.45,1162.2 2157.49,1122.42C2132,1087.43 2115.57,1038.88 2096.17,984.971C2091.74,994.531 2086.78,1003.25 2081.84,1011.38C2062.9,1042.54 2034.05,1065.79 1975.22,1055.65C1956.25,1052.38 1884.2,1003.18 1884.5,842.66C1884.78,697.768 1928.29,650 1961.4,632.886C2025.29,599.859 2059.61,629.882 2082.38,663.96C2083.77,666.044 2085.33,668.039 2086.75,670.161ZM2059.07,831.215C2052.85,803.099 2049.63,782.223 2038.16,748.31C2031.37,728.222 2021.02,676.609 1970.98,697.241C1951.87,705.121 1920.1,741.617 1920.39,842.351C1920.71,950.158 1956.94,989.142 1972.77,991.685C2000.27,996.101 2025.58,965.888 2037.18,939.797C2051.05,908.621 2050.3,874.042 2059.07,831.215ZM2127.43,837.678C2145.35,909.65 2147.58,949.107 2183.44,1007.41C2205.28,1042.93 2246.33,1071.31 2264.47,1070.85C2301.2,1069.94 2344.12,1049.64 2359.92,838.402C2376.52,616.549 2305.28,566.269 2278,566.149C2223.7,565.91 2187.35,608.297 2167.46,657.948C2146.25,710.91 2139.66,776.357 2127.43,837.678Z" style="fill:white;"/>
        </g>
        <g transform="matrix(0.560893,0.341053,-0.341053,0.560893,1144.07,-124.899)">
            <circle cx="562.326" cy="353.721" r="92.791" style="fill:white;"/>
            <path d="M562.326,220.258C635.986,220.258 695.788,280.061 695.788,353.721C695.788,427.381 635.986,487.183 562.326,487.183C488.666,487.183 428.863,427.381 428.863,353.721C428.863,280.061 488.666,220.258 562.326,220.258ZM562.326,260.93C511.113,260.93 469.535,302.508 469.535,353.721C469.535,404.934 511.113,446.512 562.326,446.512C613.538,446.512 655.116,404.934 655.116,353.721C655.116,302.508 613.538,260.93 562.326,260.93Z" style="fill:rgb(48,0,76);"/>
        </g>
        <g transform="matrix(1.34955,1.15206,-1.15206,1.34955,1404.28,-506.088)">
            <circle cx="562.326" cy="353.721" r="92.791" style="fill:white;"/>
            <path d="M562.326,226.763C632.396,226.763 689.283,283.651 689.283,353.721C689.283,423.791 632.396,480.679 562.326,480.679C492.256,480.679 435.368,423.791 435.368,353.721C435.368,283.651 492.256,226.763 562.326,226.763ZM562.326,260.93C511.113,260.93 469.535,302.508 469.535,353.721C469.535,404.934 511.113,446.512 562.326,446.512C613.538,446.512 655.116,404.934 655.116,353.721C655.116,302.508 613.538,260.93 562.326,260.93Z" style="fill:rgb(48,0,76);"/>
        </g>
    </g>
</svg>
